<?xml version="1.0" ?>
<!DOCTYPE svg  PUBLIC '-//W3C//DTD SVG 1.1//EN'  'http://www.w3.org/Graphics/SVG/1.1/DTD/svg11.dtd'>
<!-- Uploaded to: SVG Repo, www.svgrepo.com, Generator: SVG Repo Mixer Tools -->
<svg width="800px" height="800px" viewBox="0 0 800 800" enable-background="new 0 0 800 800" id="GUIDE" version="1.1" xml:space="preserve" xmlns="http://www.w3.org/2000/svg" xmlns:cc="http://creativecommons.org/ns#" xmlns:dc="http://purl.org/dc/elements/1.1/" xmlns:inkscape="http://www.inkscape.org/namespaces/inkscape" xmlns:rdf="http://www.w3.org/1999/02/22-rdf-syntax-ns#" xmlns:sodipodi="http://sodipodi.sourceforge.net/DTD/sodipodi-0.dtd" xmlns:svg="http://www.w3.org/2000/svg" xmlns:xlink="http://www.w3.org/1999/xlink">
<g>
<path d="M418.737,517.131c0,11.046,8.954,20,20,20h6.363c11.046,0,20-8.954,20-20s-8.954-20-20-20h-6.363   C427.691,497.131,418.737,506.085,418.737,517.131z"/>
<path d="M659.179,503.165l-21.85-22.396c-13.048-13.375-24.493-41.498-24.493-60.184V306.733   c0-97.127-65.397-179.266-154.47-204.699C456.308,54.033,433.87,23.428,400,23.428s-56.308,30.605-58.366,78.606   c-89.072,25.434-154.47,107.572-154.47,204.699V440.5c0,11.046,8.954,20,20,20s20-8.954,20-20V306.733   c0-95.303,77.534-172.837,172.836-172.837s172.836,77.534,172.836,172.837v113.852c0,28.797,15.752,67.502,35.861,88.116   l21.85,22.396c13.048,13.375,24.493,41.498,24.493,60.184v9.178c0,12.801-10.414,23.215-23.215,23.215H168.176   c-12.802,0-23.216-10.414-23.216-23.215v-9.178c0-16.211,8.614-39.525,19.416-54.149h213.528c11.046,0,20-8.954,20-20   s-8.954-20-20-20H155.137c-5.39,0-10.552,2.176-14.316,6.034c-20.108,20.613-35.86,59.317-35.86,88.115v9.178   c0,34.857,28.358,63.215,63.216,63.215h100.429c9.675,63.826,64.911,112.899,131.396,112.899s121.721-49.073,131.396-112.899   h100.43c34.856,0,63.215-28.357,63.215-63.215v-9.178C695.04,562.483,679.288,523.778,659.179,503.165z M382.363,94.633   c2.148-17.074,8.117-31.205,17.637-31.205s15.488,14.131,17.637,31.205c-5.817-0.479-11.697-0.736-17.637-0.736   S388.181,94.153,382.363,94.633z M400,736.572c-44.36,0-81.552-31.255-90.725-72.899h181.448   C481.552,705.317,444.36,736.572,400,736.572z"/>
<path d="M403.904,173.954c-1.297-0.038-2.599-0.057-3.904-0.057c-11.046,0-20,8.954-20,20s8.954,20,20,20   c0.915,0,1.827,0.014,2.735,0.041c0.199,0.006,0.397,0.008,0.596,0.008c10.774,0,19.663-8.574,19.98-19.416   C423.634,183.489,414.945,174.276,403.904,173.954z"/>
<path d="M450.575,228.921c26.463,17.271,42.261,46.359,42.261,77.812c0,11.046,8.954,20,20,20s20-8.954,20-20   c0-45.015-22.579-86.625-60.397-111.31c-9.25-6.036-21.643-3.432-27.68,5.818C438.722,210.492,441.325,222.884,450.575,228.921z"/>
</g>
</svg>