<?xml version="1.0" ?>
<!DOCTYPE svg  PUBLIC '-//W3C//DTD SVG 1.1//EN'  'http://www.w3.org/Graphics/SVG/1.1/DTD/svg11.dtd'>
<!-- Uploaded to: SVG Repo, www.svgrepo.com, Generator: SVG Repo Mixer Tools -->
<svg width="800px" height="800px" viewBox="0 0 800 800" enable-background="new 0 0 800 800" id="GUIDE" version="1.1" xml:space="preserve" xmlns="http://www.w3.org/2000/svg" xmlns:cc="http://creativecommons.org/ns#" xmlns:dc="http://purl.org/dc/elements/1.1/" xmlns:inkscape="http://www.inkscape.org/namespaces/inkscape" xmlns:rdf="http://www.w3.org/1999/02/22-rdf-syntax-ns#" xmlns:sodipodi="http://sodipodi.sourceforge.net/DTD/sodipodi-0.dtd" xmlns:svg="http://www.w3.org/2000/svg" xmlns:xlink="http://www.w3.org/1999/xlink">
<g>
<path d="M205.192,564.16c2.663,1.196,5.447,1.763,8.188,1.763c7.632,0,14.921-4.393,18.253-11.805   c0.855-1.902,1.735-3.826,2.641-5.77c4.664-10.013,0.327-21.91-9.686-26.574s-21.91-0.327-26.574,9.686   c-0.981,2.107-1.937,4.194-2.864,6.258C190.622,547.793,195.118,559.631,205.192,564.16z"/>
<path d="M704.048,28.185c-5.118-4.382-12.1-5.894-18.571-4.018C594.619,50.485,497.521,137.613,432.063,206.07   c-77.966,81.538-154.592,182.462-204.975,269.973c-5.511,9.572-2.219,21.8,7.354,27.312c3.145,1.81,6.575,2.671,9.96,2.671   c6.92-0.001,13.651-3.597,17.351-10.024c48.872-84.887,123.347-182.938,199.22-262.287   c74.563-77.979,146.197-133.582,205.449-159.937c-5.986,36.703-13.843,70.702-23.787,102.998l-80.579,28.637   c-8.062,2.864-13.408,10.54-13.302,19.095c0.107,8.555,5.645,16.095,13.775,18.757l48.154,15.769   c-6.942,14.376-14.396,28.076-22.289,40.969l-97.724-9.853c-8.444-0.852-16.512,3.724-20.114,11.411   c-3.604,7.688-1.961,16.812,4.097,22.76l52.718,51.757c-13.877,13.073-28.697,24.726-44.291,34.821l-47.553-36.924   c-6.031-4.683-14.203-5.524-21.061-2.166c-6.858,3.357-11.206,10.327-11.206,17.963v57.602   c-26.932,7.94-55.942,12.699-86.447,14.167c-11.032,0.53-19.546,9.905-19.016,20.938c0.532,11.032,9.917,19.548,20.938,19.015   c39.447-1.898,76.803-8.829,111.029-20.6c8.074-2.777,13.495-10.374,13.495-18.913v-31.358l26.233,20.369   c6.455,5.013,15.312,5.593,22.365,1.466c28.543-16.701,54.945-37.83,78.475-62.802c7.466-7.923,7.224-20.361-0.544-27.987   l-26.493-26.01l53.387,5.382c7.428,0.751,14.669-2.709,18.754-8.968c15.234-23.34,29.061-49.298,41.094-77.151   c2.23-5.16,2.185-11.021-0.125-16.146c-2.309-5.125-6.668-9.043-12.01-10.792l-13.739-4.499l34.749-12.349   c5.858-2.082,10.416-6.771,12.33-12.686c15.158-46.821,25.998-96.715,33.143-152.532C711.734,39.232,709.167,32.567,704.048,28.185   z"/>
<path d="M294.173,636.07l-3.816-2.082c-5.363-2.925-9.89-10.825-9.89-14.236v-11.064c20.625-13.142,33.332-31.909,33.332-53.064   c0-11.046-8.954-20-20-20s-20,8.954-20,20c0,15.04-29.208,32.523-66.865,32.523c-37.656,0-66.863-17.483-66.863-32.523   c0-8.861,10.265-18.735,26.151-25.154c10.241-4.139,15.188-15.796,11.05-26.037c-4.138-10.24-15.794-15.189-26.037-11.05   c-32.038,12.945-51.165,36.214-51.165,62.241c0,21.155,12.707,39.923,33.331,53.064v11.064c0,3.411-4.526,11.312-9.886,14.236   l-3.821,2.082c-17.522,9.559-30.735,31.816-30.735,51.775v45.64c0,23.786,19.352,43.138,43.139,43.138h149.674   c23.786,0,43.138-19.352,43.138-43.138v-45.64C324.909,667.887,311.696,645.629,294.173,636.07z M284.909,733.485   c0,1.671-1.467,3.138-3.138,3.138H132.098c-1.672,0-3.139-1.467-3.139-3.138v-45.64c0-5.369,5.176-14.088,9.887-16.658l3.821-2.083   c16.022-8.74,28.435-27.229,30.442-44.535c10.59,2.322,21.95,3.577,33.824,3.577c11.874,0,23.234-1.255,33.825-3.577   c2.007,17.306,14.42,35.796,30.444,44.536l3.817,2.082c4.714,2.57,9.89,11.289,9.89,16.658V733.485z"/>
</g>
</svg>