<?xml version="1.0" ?>
<!DOCTYPE svg  PUBLIC '-//W3C//DTD SVG 1.1//EN'  'http://www.w3.org/Graphics/SVG/1.1/DTD/svg11.dtd'>
<!-- Uploaded to: SVG Repo, www.svgrepo.com, Generator: SVG Repo Mixer Tools -->
<svg width="800px" height="800px" viewBox="0 0 800 800" enable-background="new 0 0 800 800" id="GUIDE" version="1.1" xml:space="preserve" xmlns="http://www.w3.org/2000/svg" xmlns:cc="http://creativecommons.org/ns#" xmlns:dc="http://purl.org/dc/elements/1.1/" xmlns:inkscape="http://www.inkscape.org/namespaces/inkscape" xmlns:rdf="http://www.w3.org/1999/02/22-rdf-syntax-ns#" xmlns:sodipodi="http://sodipodi.sourceforge.net/DTD/sodipodi-0.dtd" xmlns:svg="http://www.w3.org/2000/svg" xmlns:xlink="http://www.w3.org/1999/xlink">
<g>
<circle cx="399.998" cy="217.839" r="34.91"/>
<path d="M311.233,441.527c-9.567-5.521-21.799-2.242-27.32,7.324l-1.657,2.871c-5.521,9.566-2.243,21.798,7.323,27.32   c3.149,1.817,6.587,2.682,9.979,2.682c6.913,0,13.637-3.589,17.341-10.006l1.657-2.871   C324.078,459.281,320.8,447.05,311.233,441.527z"/>
<path d="M713.577,651.023L490.832,265.22c7.426-14.179,11.635-30.296,11.635-47.381c0-56.501-45.967-102.468-102.467-102.468   c-5.107,0-10.129,0.381-15.038,1.106V63.428h29.948v22.16c0,11.046,8.954,20,20,20c11.045,0,20-8.954,20-20V43.429   c0-11.045-8.955-20-20-20l-69.948-0.001c-5.304,0-10.392,2.107-14.142,5.858c-3.751,3.75-5.858,8.838-5.858,14.142v88.015   c-28.497,18.218-47.43,50.137-47.43,86.396c0,17.084,4.208,33.202,11.635,47.381L86.423,651.023   c-2.652,4.594-3.371,10.053-1.998,15.176l25.602,95.549c2.093,7.814,8.688,13.598,16.708,14.653   c0.875,0.115,1.748,0.171,2.615,0.171c7.076,0,13.713-3.76,17.314-10l126.039-218.304l107.231-0.002v29.821   c0,11.046,8.954,20,20,20s20-8.954,20-20v-48.544c0.026-0.425,0.063-0.847,0.063-1.278c0-0.431-0.037-0.852-0.063-1.275v-48.545   c0-11.046-8.954-20-20-20s-20,8.954-20,20v29.821l-118.778,0.002c-7.146,0-13.748,3.812-17.32,10l-107.67,186.487l-10.961-40.906   l211.167-365.751c7.798,6.195,16.515,11.282,25.911,15.015l-47.944,83.041c-5.522,9.566-2.245,21.797,7.32,27.32   c3.149,1.818,6.588,2.684,9.981,2.684c6.912,0,13.635-3.588,17.339-10.004L400,327.785l104.2,180.481h-46.027   c-11.046,0-20,8.954-20,20s8.954,20,19.999,20l80.67,0.001c7.145,0,13.748-3.813,17.32-10c3.573-6.188,3.573-13.813,0-20   L437.717,313.113c9.396-3.733,18.112-8.819,25.91-15.015L674.794,663.85l-10.962,40.908l-66.449-115.095   c-5.523-9.565-17.754-12.843-27.32-7.321c-9.566,5.523-12.844,17.756-7.321,27.321l90.592,156.909   c3.603,6.24,10.239,10.001,17.314,10c0.867,0,1.741-0.056,2.616-0.171c8.02-1.056,14.614-6.839,16.708-14.652l25.604-95.549   C716.948,661.076,716.229,655.617,713.577,651.023z M400,280.307c-34.445,0-62.468-28.023-62.468-62.468   s28.022-62.468,62.468-62.468c34.444,0,62.467,28.023,62.467,62.468S434.444,280.307,400,280.307z"/>
</g>
</svg>