<?xml version="1.0" ?>
<!DOCTYPE svg  PUBLIC '-//W3C//DTD SVG 1.1//EN'  'http://www.w3.org/Graphics/SVG/1.1/DTD/svg11.dtd'>
<!-- Uploaded to: SVG Repo, www.svgrepo.com, Generator: SVG Repo Mixer Tools -->
<svg width="800px" height="800px" viewBox="0 0 800 800" enable-background="new 0 0 800 800" id="GUIDE" version="1.1" xml:space="preserve" xmlns="http://www.w3.org/2000/svg" xmlns:cc="http://creativecommons.org/ns#" xmlns:dc="http://purl.org/dc/elements/1.1/" xmlns:inkscape="http://www.inkscape.org/namespaces/inkscape" xmlns:rdf="http://www.w3.org/1999/02/22-rdf-syntax-ns#" xmlns:sodipodi="http://sodipodi.sourceforge.net/DTD/sodipodi-0.dtd" xmlns:svg="http://www.w3.org/2000/svg" xmlns:xlink="http://www.w3.org/1999/xlink">
<g>
<path d="M756.466,480.918h-36.512c-4.776-78.106-37.452-150.878-93.265-206.689C566.139,213.678,485.632,180.331,400,180.331   s-166.139,33.347-226.689,93.897c-55.813,55.812-88.488,128.583-93.265,206.689H43.534c-11.046,0-20,8.954-20,20v98.751   c0,11.046,8.954,20,20,20h653.521c11.046,0,20-8.954,20-20v-28.902c0-11.046-8.954-20-20-20s-20,8.954-20,20v8.902h-78.823v-8.902   c0-11.046-8.954-20-20-20s-20,8.954-20,20v8.902H479.41v-8.902c0-11.046-8.954-20-20-20s-20,8.954-20,20v8.902h-78.821v-8.902   c0-11.046-8.954-20-20-20s-20,8.954-20,20v8.902h-78.821v-8.902c0-11.046-8.954-20-20-20s-20,8.954-20,20v8.902h-78.822v-8.902   c0-11.046-8.954-20-20-20s-20,8.954-20,20v8.902H63.534v-58.751h672.932v78.751c0,11.046,8.954,20,20,20s20-8.954,20-20v-98.751   C776.466,489.872,767.512,480.918,756.466,480.918z M127.632,433.448l6.814,2.214c2.055,0.668,4.137,0.984,6.185,0.984   c8.431,0,16.271-5.373,19.018-13.824c3.413-10.506-2.336-21.789-12.841-25.201l-6.788-2.206   c6.085-14.938,13.419-29.237,21.876-42.77l5.715,4.151c3.55,2.579,7.662,3.821,11.738,3.821c6.185,0,12.284-2.86,16.197-8.246   c6.492-8.936,4.51-21.443-4.426-27.936l-5.672-4.121c10.334-12.256,21.693-23.616,33.95-33.95l4.122,5.673   c3.913,5.386,10.012,8.245,16.196,8.245c4.076,0,8.19-1.242,11.74-3.822c8.936-6.493,10.916-19,4.423-27.936l-4.15-5.712   c13.532-8.457,27.831-15.792,42.771-21.876l2.206,6.789c2.746,8.452,10.586,13.824,19.017,13.824c2.048,0,4.132-0.317,6.186-0.985   c10.505-3.414,16.253-14.697,12.839-25.202l-2.214-6.812c15.368-3.808,31.228-6.349,47.468-7.499l0.001,7.146   c0.001,11.045,8.956,20,20.001,19.999c11.046-0.001,20-8.956,19.999-20.001l-0.001-7.143c16.24,1.149,32.101,3.691,47.468,7.499   l-2.214,6.815c-3.413,10.505,2.337,21.788,12.842,25.201c2.054,0.667,4.136,0.984,6.184,0.984c8.432,0,16.271-5.374,19.018-13.826   l2.205-6.786c14.938,6.084,29.237,13.419,42.77,21.876l-4.15,5.713c-6.492,8.937-4.511,21.444,4.426,27.936   c3.55,2.579,7.662,3.82,11.738,3.82c6.186,0,12.284-2.86,16.197-8.247l4.119-5.671c12.257,10.333,23.617,21.693,33.95,33.949   l-5.673,4.122c-8.936,6.493-10.916,19-4.423,27.936c3.913,5.386,10.012,8.245,16.196,8.245c4.076,0,8.189-1.242,11.74-3.822   l5.711-4.15c8.457,13.532,15.792,27.831,21.877,42.769l-6.789,2.207c-10.505,3.414-16.253,14.697-12.839,25.201   c2.746,8.453,10.585,13.824,19.017,13.824c2.048,0,4.132-0.316,6.186-0.984l6.813-2.214c3.808,15.368,6.35,31.228,7.499,47.468   H252.266c9.802-72.779,72.313-129.08,147.734-129.08c41.165,0,79.487,16.413,107.907,46.217c7.623,7.992,20.282,8.295,28.276,0.672   c7.993-7.623,8.294-20.283,0.672-28.277c-17.47-18.319-38.041-32.732-61.144-42.837c-23.928-10.467-49.401-15.774-75.712-15.774   c-97.504,0-178,74.188-188.022,169.08h-91.845C121.282,464.677,123.824,448.816,127.632,433.448z"/>
<path d="M537.364,442.874c0.771,1.825,1.517,3.688,2.213,5.54c3.017,8.019,10.632,12.963,18.723,12.963   c2.339,0,4.72-0.414,7.039-1.287c10.338-3.889,15.565-15.423,11.677-25.762c-0.886-2.354-1.833-4.724-2.815-7.044   c-4.305-10.173-16.042-14.929-26.213-10.624C537.815,420.966,533.059,432.701,537.364,442.874z"/>
</g>
</svg>