<?xml version="1.0" ?>
<!DOCTYPE svg  PUBLIC '-//W3C//DTD SVG 1.1//EN'  'http://www.w3.org/Graphics/SVG/1.1/DTD/svg11.dtd'>
<!-- Uploaded to: SVG Repo, www.svgrepo.com, Generator: SVG Repo Mixer Tools -->
<svg width="800px" height="800px" viewBox="0 0 800 800" enable-background="new 0 0 800 800" id="GUIDE" version="1.1" xml:space="preserve" xmlns="http://www.w3.org/2000/svg" xmlns:cc="http://creativecommons.org/ns#" xmlns:dc="http://purl.org/dc/elements/1.1/" xmlns:inkscape="http://www.inkscape.org/namespaces/inkscape" xmlns:rdf="http://www.w3.org/1999/02/22-rdf-syntax-ns#" xmlns:sodipodi="http://sodipodi.sourceforge.net/DTD/sodipodi-0.dtd" xmlns:svg="http://www.w3.org/2000/svg" xmlns:xlink="http://www.w3.org/1999/xlink">
<g>
<g>
<path d="M102.233,159.163c-6.424,0-12.733-3.089-16.597-8.815l-3.82-5.661c-6.179-9.156-3.765-21.587,5.392-27.765    c9.156-6.179,21.587-3.766,27.766,5.391l3.82,5.661c6.178,9.156,3.764,21.588-5.392,27.766    C109.972,158.054,106.082,159.163,102.233,159.163z"/>
</g>
<g>
<path d="M401.079,401.86c-6.522,0-12.791-3.2-16.579-8.813L237.494,175.205c-4.138-6.131-4.554-14.044-1.082-20.575    c3.472-6.53,10.264-10.612,17.66-10.612l147.006-0.001c5.304,0,10.392,2.106,14.142,5.857c3.751,3.751,5.858,8.838,5.858,14.143    v217.843c0,8.792-5.742,16.554-14.15,19.125C404.995,401.576,403.026,401.86,401.079,401.86z M291.696,184.018l89.382,132.45    V184.017L291.696,184.018z"/>
</g>
<path d="M513.049,32.045H43.427c-11.046,0-20,8.954-20,20s8.954,20,20,20h449.622v46.766h-27.802c-11.046,0-20,8.954-20,20   s8.954,20,20,20h27.802v46.764h-27.802c-11.046,0-20,8.954-20,20s8.954,20,20,20h27.802v46.766h-27.802c-11.046,0-20,8.954-20,20   s8.954,20,20,20h27.802v46.766h-27.802c-11.046,0-20,8.954-20,20c0,11.045,8.954,20,20,20h27.802v46.764h-27.802   c-11.046,0-20,8.953-20,20c0,11.045,8.954,20,20,20h27.802v46.766h-27.802c-11.046,0-20,8.955-20,20c0,11.047,8.954,20,20,20   h27.802v89.928L152.823,178.4c-6.179-9.156-18.609-11.57-27.766-5.391c-9.156,6.179-11.569,18.609-5.391,27.766l376.804,558.367   c3.788,5.613,10.057,8.814,16.579,8.813c1.947,0,3.916-0.285,5.849-0.875c8.408-2.572,14.15-10.334,14.15-19.125V52.045   C533.049,40.999,524.095,32.045,513.049,32.045z"/>
<g>
<path d="M708.772,767.955c-11.046,0-20.001-8.955-20.001-20c0-11.047,8.954-20,19.999-20l47.801-0.002    c11.046,0,20.001,8.955,20.001,20s-8.954,20-19.999,20L708.772,767.955z"/>
</g>
<path d="M756.573,101.637h-80.868c-11.046,0-20,8.954-20,20s8.954,20,20,20h60.868v29.59h-27.802c-11.046,0-20,8.954-20,20   s8.954,20,20,20h27.802v29.592h-60.87c-11.046,0-20,8.954-20,20s8.954,20,20,20h60.87v29.591h-27.802c-11.046,0-20,8.954-20,20   s8.954,20,20,20h27.802V380h-60.868c-11.046,0-20,8.954-20,20c0,11.045,8.954,20,20,20h60.868v29.591l-27.803,0.001   c-11.045,0-19.999,8.955-19.999,20s8.955,20,20.001,20l27.801-0.002v29.592h-60.87c-11.046,0-20,8.953-20,20   c0,11.045,8.954,20,20,20h60.87l-0.001,29.59h-27.801c-11.046,0-20,8.953-20,20c0,11.045,8.954,20,20,20h27.801v29.592h-60.867   c-11.046,0-20,8.953-20,20c0,11.045,8.954,20,20,20h60.867v29.59H614.835l0.002-655.908h141.736c11.046,0,20-8.954,20-20   s-8.954-20-20-20H594.837c-11.046,0-20,8.954-20,20l-0.002,695.908c0,5.305,2.107,10.393,5.857,14.143   c3.751,3.75,8.838,5.857,14.143,5.857h161.737c11.046,0,20-8.953,20-20l0.001-626.316   C776.573,110.591,767.619,101.637,756.573,101.637z"/>
</g>
</svg>